# xmcd CD database file
#
# Track frame offsets:
#	150
#	18665
#	41420
#	67712
#	87905
#	106985
#	133260
#	154347
#	168415
#	191612
#	219765
#	233970
#	265147
#
# Disc length: 3629 seconds
#
# Revision: 4
# Processed by: cddbd v1.5PL3 Copyright (c) Steve Scherf et al.
# Submitted via: CDex 1.51
#
DISCID=ab0e2b0d
DTITLE=安室奈美恵 - Concentration 20
DYEAR=1997
DGENRE=JPop
TTITLE0=Concentration 20 (make you alright)
TTITLE1=B w/z you
TTITLE2=Close your eyes, Close to you
TTITLE3=Me love peace !!
TTITLE4=No Communication
TTITLE5=a walk in the park
TTITLE6=To-day
TTITLE7=Storm
TTITLE8=Whisper
TTITLE9=CAN YOU CELEBRATE?
TTITLE10=I know...
TTITLE11=How to be a Girl
TTITLE12=CD-EXTRA
EXTD=YEAR: 1997
EXTT0=
EXTT1=
EXTT2=
EXTT3=
EXTT4=
EXTT5=
EXTT6=
EXTT7=
EXTT8=
EXTT9=
EXTT10=
EXTT11=
EXTT12=
PLAYORDER=
